<mxfile host="app.diagrams.net" modified="2023-08-26T11:45:02.021Z" agent="Mozilla/5.0 (Windows NT 10.0; Win64; x64) AppleWebKit/537.36 (KHTML, like Gecko) Chrome/116.0.0.0 Safari/537.36" etag="Y2Tku4h9yFBcEFoKbvHc" version="21.6.9" type="github">
  <diagram name="Page-1" id="VdwuAXo5E6rFZ6-I0qNV">
    <mxGraphModel dx="880" dy="484" grid="1" gridSize="10" guides="1" tooltips="1" connect="1" arrows="1" fold="1" page="1" pageScale="1" pageWidth="850" pageHeight="1100" math="0" shadow="0">
      <root>
        <mxCell id="0" />
        <mxCell id="1" parent="0" />
        <mxCell id="kUL8u-t4NmzPrRvQM_40-1" style="edgeStyle=orthogonalEdgeStyle;rounded=0;orthogonalLoop=1;jettySize=auto;html=1;exitX=1;exitY=0.5;exitDx=0;exitDy=0;" edge="1" parent="1" target="kUL8u-t4NmzPrRvQM_40-2">
          <mxGeometry relative="1" as="geometry">
            <Array as="points">
              <mxPoint x="240" y="260" />
            </Array>
            <mxPoint x="240" y="240" as="sourcePoint" />
          </mxGeometry>
        </mxCell>
        <mxCell id="kUL8u-t4NmzPrRvQM_40-2" value="&lt;b&gt;&lt;font style=&quot;font-size: 14px;&quot;&gt;University campus&lt;br&gt;placement&amp;nbsp;&lt;br&gt;system&lt;/font&gt;&lt;/b&gt;" style="ellipse;whiteSpace=wrap;html=1;aspect=fixed;" vertex="1" parent="1">
          <mxGeometry x="370" y="190" width="140" height="140" as="geometry" />
        </mxCell>
        <mxCell id="kUL8u-t4NmzPrRvQM_40-3" style="edgeStyle=orthogonalEdgeStyle;rounded=0;orthogonalLoop=1;jettySize=auto;html=1;" edge="1" parent="1" target="kUL8u-t4NmzPrRvQM_40-2">
          <mxGeometry relative="1" as="geometry">
            <mxPoint x="670" y="260" as="sourcePoint" />
          </mxGeometry>
        </mxCell>
        <mxCell id="kUL8u-t4NmzPrRvQM_40-4" value="" style="endArrow=classic;html=1;rounded=0;exitX=0.5;exitY=1;exitDx=0;exitDy=0;entryX=0.5;entryY=0;entryDx=0;entryDy=0;entryPerimeter=0;" edge="1" parent="1">
          <mxGeometry width="50" height="50" relative="1" as="geometry">
            <mxPoint x="437" y="90" as="sourcePoint" />
            <mxPoint x="437" y="190" as="targetPoint" />
          </mxGeometry>
        </mxCell>
        <mxCell id="kUL8u-t4NmzPrRvQM_40-5" value="&lt;font style=&quot;font-size: 18px;&quot;&gt;manages&amp;nbsp;&lt;br&gt;student &amp;amp; company&lt;/font&gt;" style="text;html=1;strokeColor=none;fillColor=none;align=center;verticalAlign=middle;whiteSpace=wrap;rounded=0;" vertex="1" parent="1">
          <mxGeometry x="341" y="130" width="60" height="30" as="geometry" />
        </mxCell>
        <mxCell id="kUL8u-t4NmzPrRvQM_40-6" value="&lt;font style=&quot;font-size: 18px;&quot;&gt;signup&lt;/font&gt;" style="text;html=1;align=center;verticalAlign=middle;resizable=0;points=[];autosize=1;strokeColor=none;fillColor=none;" vertex="1" parent="1">
          <mxGeometry x="270" y="220" width="80" height="40" as="geometry" />
        </mxCell>
        <mxCell id="kUL8u-t4NmzPrRvQM_40-7" value="&lt;b&gt;&lt;font style=&quot;font-size: 18px;&quot;&gt;LEVEL 0 DFD&lt;/font&gt;&lt;/b&gt;" style="text;html=1;align=center;verticalAlign=middle;resizable=0;points=[];autosize=1;strokeColor=none;fillColor=none;" vertex="1" parent="1">
          <mxGeometry x="370" y="350" width="140" height="40" as="geometry" />
        </mxCell>
        <mxCell id="kUL8u-t4NmzPrRvQM_40-8" value="&lt;font style=&quot;font-size: 18px;&quot;&gt;signup&lt;/font&gt;" style="text;html=1;align=center;verticalAlign=middle;resizable=0;points=[];autosize=1;strokeColor=none;fillColor=none;" vertex="1" parent="1">
          <mxGeometry x="550" y="220" width="80" height="40" as="geometry" />
        </mxCell>
        <mxCell id="kUL8u-t4NmzPrRvQM_40-9" value="&lt;b&gt;&lt;font style=&quot;font-size: 18px;&quot;&gt;Company&lt;/font&gt;&lt;/b&gt;" style="rounded=0;whiteSpace=wrap;html=1;" vertex="1" parent="1">
          <mxGeometry x="130" y="230" width="120" height="60" as="geometry" />
        </mxCell>
        <mxCell id="kUL8u-t4NmzPrRvQM_40-10" value="&lt;b style=&quot;border-color: var(--border-color);&quot;&gt;&lt;font style=&quot;border-color: var(--border-color); font-size: 24px;&quot;&gt;Admin&lt;/font&gt;&lt;/b&gt;" style="whiteSpace=wrap;html=1;" vertex="1" parent="1">
          <mxGeometry x="380" y="40" width="120" height="60" as="geometry" />
        </mxCell>
        <mxCell id="kUL8u-t4NmzPrRvQM_40-11" value="&lt;b style=&quot;border-color: var(--border-color);&quot;&gt;&lt;font style=&quot;border-color: var(--border-color); font-size: 24px;&quot;&gt;Student&lt;/font&gt;&lt;/b&gt;" style="whiteSpace=wrap;html=1;" vertex="1" parent="1">
          <mxGeometry x="660" y="230" width="120" height="60" as="geometry" />
        </mxCell>
        <mxCell id="kUL8u-t4NmzPrRvQM_40-12" value="&lt;font style=&quot;font-size: 18px;&quot;&gt;figure 2&lt;/font&gt;" style="text;html=1;align=center;verticalAlign=middle;resizable=0;points=[];autosize=1;strokeColor=none;fillColor=none;" vertex="1" parent="1">
          <mxGeometry x="401" y="380" width="80" height="40" as="geometry" />
        </mxCell>
      </root>
    </mxGraphModel>
  </diagram>
</mxfile>
